<svg xmlns="http://www.w3.org/2000/svg" height="40" width="35" viewBox="0 0 490.667 490.667" xmlns:v="https://vecta.io/nano" fill="#fff"><path d="M462.805 209.045c-7.573-5.568-16.98-12.523-18.22-17.13-1.344-5.035 3.456-16.128 7.34-25.024 6.635-15.275 13.504-31.083 5.888-44.267-7.7-13.355-25.003-15.296-41.707-17.173-9.536-1.067-21.397-2.4-24.94-5.952-3.563-3.54-4.885-15.403-5.952-24.94-1.877-16.704-3.82-33.984-17.173-41.707-11.605-6.74-28.8-.853-44.267 5.888-8.555 3.712-17.472 7.253-25.045 7.34-4.608-1.216-11.54-10.645-17.13-18.22C271.98 14.805 261.077 0 245.333 0c-15.723 0-26.645 14.805-36.267 27.84-5.6 7.573-12.523 17.003-19.05 18.453-5.74 0-14.57-3.84-23.125-7.552-15.5-6.74-32.725-12.565-44.245-5.888-13.376 7.723-15.317 25.003-17.195 41.707-1.045 9.536-2.4 21.376-5.93 24.94-3.563 3.563-15.424 4.885-24.94 5.952-16.725 1.877-34.027 3.84-41.728 17.173-7.616 13.163-.747 28.97 5.888 44.267 3.883 8.896 8.704 20 7.36 25.024-1.237 4.608-10.667 11.563-18.22 17.13C14.805 218.667 0 229.6 0 245.333S14.805 272 27.86 281.62c7.573 5.568 16.98 12.523 18.22 17.13 1.344 5.035-3.456 16.128-7.34 25.024-6.635 15.275-13.504 31.083-5.888 44.267 7.7 13.355 25.003 15.296 41.707 17.173 9.536 1.067 21.397 2.4 24.94 5.952 3.563 3.54 4.885 15.403 5.952 24.94 1.877 16.704 3.82 33.984 17.173 41.707 11.563 6.72 28.757.853 44.267-5.888 8.555-3.712 17.3-7.467 25.045-7.34 4.608 1.216 11.54 10.645 17.13 18.22 9.62 13.056 20.523 27.86 36.267 27.86 15.723 0 26.645-14.805 36.245-27.84 5.6-7.573 12.523-17.003 19.05-18.453 5.76 0 14.592 3.84 23.125 7.552 15.53 6.763 32.725 12.587 44.245 5.9 13.376-7.723 15.317-25.003 17.195-41.728 1.045-9.536 2.4-21.376 5.93-24.94 3.563-3.563 15.424-4.885 24.94-5.952 16.725-1.877 34.027-3.84 41.728-17.173 7.637-13.163.768-28.97-5.888-44.267-3.883-8.896-8.683-19.968-7.34-25.024 1.237-4.608 10.667-11.563 18.22-17.13 13.077-9.62 27.883-20.544 27.883-36.288s-14.807-26.666-27.863-36.288zm-12.63 55.36c-11.328 8.34-23.04 16.96-26.197 28.78-3.264 12.245 2.667 25.877 8.405 39.06 3.67 8.448 9.216 21.205 6.997 25.067-2.325 4.032-16.34 5.6-25.643 6.656-14.165 1.6-28.82 3.243-37.653 12.075s-10.475 23.488-12.053 37.653c-1.045 9.28-2.624 23.317-6.677 25.643-.62.363-1.643.448-2.4.448-5.547 0-14.25-3.797-22.677-7.445-13.227-5.74-27.7-11.456-39.04-8.384-11.84 3.157-20.46 14.87-28.82 26.197-5.632 7.637-14.144 19.18-19.093 19.18s-13.483-11.54-19.093-19.18c-8.34-11.307-16.96-23.02-28.8-26.176-2.325-.62-4.82-.94-7.445-.94-10.176 0-21.077 4.736-31.616 9.344-8.405 3.648-17.1 7.445-22.677 7.445-.747 0-1.77-.085-2.4-.448-4.053-2.347-5.6-16.363-6.656-25.643-1.6-14.165-3.243-28.82-12.075-37.653-8.8-8.832-23.488-10.475-37.653-12.075-9.26-1.045-23.296-2.624-25.62-6.656-2.24-3.84 3.328-16.62 6.997-25.067 5.74-13.184 11.67-26.816 8.405-39.06-3.18-11.82-14.9-20.437-26.197-28.78-7.637-5.653-19.18-14.165-19.18-19.115s11.54-13.46 19.18-19.115c11.328-8.34 23.04-16.96 26.197-28.78 3.264-12.245-2.667-25.877-8.405-39.06-3.648-8.448-9.216-21.205-6.997-25.067 2.347-4.032 16.363-5.6 25.643-6.635 14.165-1.6 28.82-3.243 37.653-12.075S125.08 91.11 126.68 76.946c1.024-9.28 2.603-23.296 6.656-25.643.62-.363 1.643-.448 2.4-.448 5.547 0 14.25 3.797 22.656 7.467 13.227 5.74 27.67 11.477 39.04 8.384 11.84-3.157 20.46-14.87 28.82-26.197 5.632-7.637 14.144-19.18 19.093-19.18s13.483 11.54 19.115 19.157c8.34 11.307 16.96 23.02 28.8 26.176 11.264 3.008 25.813-2.624 39.04-8.384 8.405-3.648 17.1-7.445 22.677-7.445.747 0 1.77.085 2.4.448 4.053 2.347 5.6 16.363 6.656 25.643 1.6 14.165 3.243 28.82 12.075 37.653 8.8 8.832 23.488 10.475 37.653 12.075 9.26 1.045 23.296 2.624 25.62 6.656 2.24 3.84-3.328 16.62-6.997 25.067-5.74 13.184-11.67 26.816-8.405 39.06 3.18 11.82 14.9 20.437 26.197 28.78 7.637 5.653 19.18 14.165 19.18 19.115s-11.544 13.463-19.16 19.073zM181.333 192c-5.888 0-10.667 4.78-10.667 10.667V256l-44.8-59.733c-2.752-3.67-7.573-5.184-11.904-3.712a10.67 10.67 0 0 0-7.296 10.112V288c0 5.888 4.78 10.667 10.667 10.667S128 293.888 128 288v-53.333l44.8 59.733a10.69 10.69 0 0 0 8.533 4.267 10.22 10.22 0 0 0 3.37-.555A10.67 10.67 0 0 0 192 288v-85.333c0-5.888-4.78-10.667-10.667-10.667zm85.334 85.333h-32v-64h32c5.888 0 10.667-4.78 10.667-10.667S272.555 192 266.667 192H224c-5.888 0-10.667 4.78-10.667 10.667V288c0 5.888 4.78 10.667 10.667 10.667h42.667c5.888 0 10.667-4.78 10.667-10.667s-4.78-10.667-10.667-10.667z"/><path d="M266.667 234.667H224c-5.888 0-10.667 4.78-10.667 10.667S218.112 256 224 256h42.667c5.888 0 10.667-4.78 10.667-10.667s-4.78-10.666-10.667-10.666zm130.56-42.347c-5.76-1.43-11.52 2.027-12.928 7.765l-12.437 49.792-9.75-29.248c-2.9-8.704-17.323-8.704-20.245 0l-9.75 29.248-12.437-49.792c-1.43-5.74-7.317-9.216-12.928-7.765-5.717 1.43-9.173 7.2-7.765 12.928l21.333 85.333c1.152 4.587 5.205 7.893 9.94 8.064 5.355.213 9.045-2.795 10.54-7.275l11.2-33.643 11.2 33.643c1.472 4.373 5.547 7.296 10.133 7.296.128 0 .277 0 .384-.02a10.64 10.64 0 0 0 9.94-8.064L405 205.25c1.428-5.717-2.028-11.5-7.766-12.928z" /></svg>