<svg xmlns="http://www.w3.org/2000/svg" height="35" width="35" viewBox="0 0 460.298 460.297" xmlns:v="https://vecta.io/nano"><path d="M230.15 120.94L65.986 256.274c0 .2-.048.472-.144.855s-.144.656-.144.852v137.04c0 4.948 1.8 9.236 5.426 12.847s7.898 5.43 12.847 5.43H193.6V303.664h73.097v109.64h109.63c4.948 0 9.236-1.814 12.847-5.435 3.617-3.607 5.432-7.898 5.432-12.847V257.98c0-.76-.104-1.334-.288-1.707L230.15 120.94zm226.972 104.498L394.6 173.476V57c0-2.663-.856-4.853-2.574-6.567-1.704-1.712-3.894-2.568-6.563-2.568h-54.816c-2.666 0-4.855.856-6.57 2.568S321.51 54.328 321.51 57v55.673l-69.66-58.246c-6.084-4.95-13.318-7.423-21.694-7.423s-15.608 2.474-21.698 7.423L3.172 225.438c-1.903 1.52-2.946 3.566-3.14 6.136s.472 4.8 1.997 6.713l17.7 21.128c1.525 1.712 3.52 2.76 5.996 3.142 2.285.192 4.57-.476 6.855-1.998L230.15 95.817l197.57 164.74c1.526 1.328 3.52 2 5.996 2h.858c2.47-.376 4.463-1.43 5.996-3.138l17.703-21.125c1.522-1.906 2.2-4.145 2-6.716-.195-2.563-1.242-4.6-3.14-6.132z" fill="#fff"/></svg>