<svg xmlns="http://www.w3.org/2000/svg" height="25" width="25"  viewBox="0 0 54 60" width="512" xmlns:v="https://vecta.io/nano"><path d="M41.38 59H12.62a4 4 0 0 1-3.98-3.6L5 19h44l-3.64 36.4a4 4 0 0 1-3.98 3.6z" fill="#009688"/><path d="M46 19l-3.64 36.4a4 4 0 0 1-3.98 3.6h3a4 4 0 0 0 3.98-3.6L49 19z" fill="#00695c"/><rect fill="#00bcd4" height="11" rx="3" width="52" x="1" y="8"/><path d="M50 8h-3a3 3 0 0 1 3 3v5a3 3 0 0 1-3 3h3a3 3 0 0 0 3-3v-5a3 3 0 0 0-3-3z" fill="#00838f"/><path d="M38 8H16V4a3 3 0 0 1 3-3h16a3 3 0 0 1 3 3z" fill="#009688"/><path d="M35 1h-3a3 3 0 0 1 3 3v4h3V4a3 3 0 0 0-3-3z" fill="#00695c"/><path d="M12 24h-2a1 1 0 1 1 0-2h2a1 1 0 1 1 0 2zm23 0H16a1 1 0 1 1 0-2h19a1 1 0 1 1 0 2z" fill="#f5f5f5"/><path d="M19 2h16a2 2 0 0 1 2 2 1 1 0 1 0 2 0c-.003-2.208-1.792-3.997-4-4H19a4 4 0 0 0-4 4v3H4a4 4 0 0 0-4 4v5a4 4 0 0 0 4 4h.1l3.55 35.5c.25 2.556 2.4 4.504 4.97 4.5h28.76c2.57.008 4.725-1.94 4.975-4.5L49.9 20h.1a4 4 0 0 0 4-4v-5c-.003-2.208-1.792-3.997-4-4H17V4a2 2 0 0 1 2-2zm25.364 53.3a2.99 2.99 0 0 1-2.985 2.7H12.62a2.99 2.99 0 0 1-2.986-2.7L6.1 20h41.8zM38 9h12a2 2 0 0 1 2 2v5a2 2 0 0 1-2 2H4a2 2 0 0 1-2-2v-5a2 2 0 0 1 2-2zM27 55a1 1 0 0 0 1-1V28a1 1 0 1 0-2 0v26a1 1 0 0 0 1 1zm-6.12-4a1 1 0 0 0-.959 1.039l.08 2A1 1 0 0 0 21 55h.04a1 1 0 0 0 .96-1.043l-.08-2a1 1 0 0 0-.32-.696c-.195-.18-.455-.274-.72-.26zm-.112-2h.04a1 1 0 0 0 .961-1.037l-.77-20c-.006-.267-.12-.52-.315-.7a.99.99 0 0 0-.723-.262 1 1 0 0 0-.96 1.036l.77 20a1 1 0 0 0 .998.964zm-6.993 3.112l.23 2A1 1 0 0 0 15 55a1.14 1.14 0 0 0 .116-.006 1 1 0 0 0 .879-1.108l-.23-2a1 1 0 1 0-1.987.229zM14.307 49l.117-.006a1 1 0 0 0 .878-1.108l-2.3-20a1 1 0 1 0-1.986.229l2.3 20a1 1 0 0 0 .991.885zm18.653 6H33a1 1 0 0 0 1-.96l1-26a1 1 0 1 0-2-.077l-1 26A1 1 0 0 0 32.959 55zm5.924-.01H39a1 1 0 0 0 .992-.885l.23-2a1 1 0 1 0-1.987-.229l-.23 2a1 1 0 0 0 .879 1.105zm.7-6a1.14 1.14 0 0 0 .116.009 1 1 0 0 0 .992-.885l2.3-20a1 1 0 1 0-1.986-.229l-2.3 20a1 1 0 0 0 .879 1.105z" fill="#000"/></svg>