<svg xmlns="http://www.w3.org/2000/svg" width="32" height="32" viewBox="0 0 532.667 532.667" xmlns:v="https://vecta.io/nano"><path d="M402.345 13c-33.1 0-60 26.9-60 60s26.9 60 60 60 60-26.9 60-60-26.9-60-60-60zm-150 75c-84.536 0-135 54.404-135 145.532C117.345 474.748 172.453 512 232.013 512c43.345 0 65.332-42.173 65.332-125.332 0-42.275 16.6-70.548 34.2-96.24 17.212-25.15 35-51.167 35-92.153 0-87.042-71.777-110.274-114.2-110.274zm36.988-27.884c16.538 0 30-13.462 30-30s-13.462-30-30-30-30 13.462-30 30 13.46 30 30 30zM211.3 60c16.538 0 30-13.462 30-30s-13.462-30-30-30-30 13.462-30 30 13.462 30 30 30zm-45.644 3.23c0-16.538-13.462-30-30-30s-30 13.462-30 30 13.462 30 30 30 30-13.46 30-30zm-86 34.628c-16.538 0-30 13.462-30 30s13.462 30 30 30 30-13.462 30-30-13.462-30-30-30z" fill="#fff"/></svg>